<svg width="892" height="901" viewBox="0 0 892 901" fill="none" xmlns="http://www.w3.org/2000/svg">
<g filter="url(#filter0_d)">
<path d="M893 892L893 1L6.49585 1C-18.2668 60.5778 273.933 -60.3563 179.835 310.449C85.7365 681.255 338.316 741.722 293.743 892L893 892Z" fill="#FFF2C7"/>
<path d="M893 892L893 1L6.49585 1C-18.2668 60.5778 273.933 -60.3563 179.835 310.449C85.7365 681.255 338.316 741.722 293.743 892L893 892Z" stroke="#FFF2C7" stroke-width="0.620904"/>
</g>
<path d="M420.783 182L425.856 195.138L439.565 200L425.856 204.862L420.783 218L415.71 204.862L402 200L415.71 195.138L420.783 182Z" fill="#2B1C1C"/>
<path d="M420.783 182L425.856 195.138L439.565 200L425.856 204.862L420.783 218L415.71 204.862L402 200L415.71 195.138L420.783 182Z" fill="#2B1C1C"/>
<path d="M420.783 182L425.856 195.138L439.565 200L425.856 204.862L420.783 218L415.71 204.862L402 200L415.71 195.138L420.783 182Z" fill="#2B1C1C"/>
<path d="M420.783 182L425.856 195.138L439.565 200L425.856 204.862L420.783 218L415.71 204.862L402 200L415.71 195.138L420.783 182Z" fill="#2B1C1C"/>
<path d="M426.783 271L431.856 284.138L445.565 289L431.856 293.862L426.783 307L421.71 293.862L408 289L421.71 284.138L426.783 271Z" fill="#2B1C1C"/>
<path d="M426.783 271L431.856 284.138L445.565 289L431.856 293.862L426.783 307L421.71 293.862L408 289L421.71 284.138L426.783 271Z" fill="#2B1C1C"/>
<path d="M426.783 271L431.856 284.138L445.565 289L431.856 293.862L426.783 307L421.71 293.862L408 289L421.71 284.138L426.783 271Z" fill="#2B1C1C" fill-opacity="0.3"/>
<path d="M426.783 271L431.856 284.138L445.565 289L431.856 293.862L426.783 307L421.71 293.862L408 289L421.71 284.138L426.783 271Z" fill="#2B1C1C"/>
<path d="M493 233L495.431 239.295L502 241.625L495.431 243.955L493 250.25L490.569 243.955L484 241.625L490.569 239.295L493 233Z" fill="#2B1C1C"/>
<path d="M493 233L495.431 239.295L502 241.625L495.431 243.955L493 250.25L490.569 243.955L484 241.625L490.569 239.295L493 233Z" fill="#2B1C1C"/>
<path d="M493 233L495.431 239.295L502 241.625L495.431 243.955L493 250.25L490.569 243.955L484 241.625L490.569 239.295L493 233Z" fill="#2B1C1C"/>
<path d="M493 233L495.431 239.295L502 241.625L495.431 243.955L493 250.25L490.569 243.955L484 241.625L490.569 239.295L493 233Z" fill="#2B1C1C" fill-opacity="0.2"/>
<path d="M488 192L490.431 198.295L497 200.625L490.431 202.955L488 209.25L485.569 202.955L479 200.625L485.569 198.295L488 192Z" fill="#2B1C1C"/>
<path d="M488 192L490.431 198.295L497 200.625L490.431 202.955L488 209.25L485.569 202.955L479 200.625L485.569 198.295L488 192Z" fill="#2B1C1C"/>
<path d="M488 192L490.431 198.295L497 200.625L490.431 202.955L488 209.25L485.569 202.955L479 200.625L485.569 198.295L488 192Z" fill="#2B1C1C"/>
<path d="M488 192L490.431 198.295L497 200.625L490.431 202.955L488 209.25L485.569 202.955L479 200.625L485.569 198.295L488 192Z" fill="#2B1C1C" fill-opacity="0.2"/>
<path d="M528 184L530.431 190.295L537 192.625L530.431 194.955L528 201.25L525.569 194.955L519 192.625L525.569 190.295L528 184Z" fill="#2B1C1C"/>
<path d="M528 184L530.431 190.295L537 192.625L530.431 194.955L528 201.25L525.569 194.955L519 192.625L525.569 190.295L528 184Z" fill="#2B1C1C"/>
<path d="M528 184L530.431 190.295L537 192.625L530.431 194.955L528 201.25L525.569 194.955L519 192.625L525.569 190.295L528 184Z" fill="#2B1C1C"/>
<path d="M528 184L530.431 190.295L537 192.625L530.431 194.955L528 201.25L525.569 194.955L519 192.625L525.569 190.295L528 184Z" fill="#2B1C1C" fill-opacity="0.2"/>
<path d="M440 236L442.431 242.295L449 244.625L442.431 246.955L440 253.25L437.569 246.955L431 244.625L437.569 242.295L440 236Z" fill="#2B1C1C"/>
<path d="M440 236L442.431 242.295L449 244.625L442.431 246.955L440 253.25L437.569 246.955L431 244.625L437.569 242.295L440 236Z" fill="#2B1C1C"/>
<path d="M440 236L442.431 242.295L449 244.625L442.431 246.955L440 253.25L437.569 246.955L431 244.625L437.569 242.295L440 236Z" fill="#2B1C1C"/>
<path d="M440 236L442.431 242.295L449 244.625L442.431 246.955L440 253.25L437.569 246.955L431 244.625L437.569 242.295L440 236Z" fill="#2B1C1C" fill-opacity="0.2"/>
<g filter="url(#filter1_d)">
<g filter="url(#filter2_d)">
<path d="M481.488 303.434C481.739 302.673 481.954 302.027 482.13 301.5H697.539C697.728 302.066 697.962 302.769 698.238 303.604C699.056 306.083 700.239 309.722 701.694 314.35C704.605 323.607 708.604 336.818 712.954 352.624C721.658 384.249 731.752 426.208 737.356 467.648C742.972 509.175 744.025 549.823 734.916 579.013C730.374 593.566 723.371 605.064 713.351 612.475C703.372 619.856 690.111 623.399 672.601 621.514C600.622 613.767 580.105 613.729 563.66 615.705C560.46 616.09 557.432 616.548 554.207 617.036C541.094 619.022 524.726 621.5 480.333 621.5C467.157 621.5 457.458 616.718 450.365 608.412C443.188 600.006 438.533 587.809 435.97 572.798C430.841 542.766 434.245 502.488 441.173 461.921C448.089 421.418 458.47 380.888 467.128 350.466C471.456 335.259 475.351 322.588 478.164 313.721C479.57 309.287 480.705 305.805 481.488 303.434Z" stroke="#2B1C1C" stroke-width="5"/>
</g>
<path d="M448.333 596C485.667 570.667 593.934 535.2 728.333 596" stroke="#2B1C1C" stroke-width="5"/>
<path d="M480.333 336H708.333" stroke="#2B1C1C" stroke-width="5"/>
<path d="M541.333 301C541.333 220.754 640.333 221.246 640.333 301" stroke="black" stroke-width="5"/>
<path d="M630 416L611 428.5C616.667 425.667 629.2 421.7 634 428.5" stroke="black" stroke-width="3"/>
<circle cx="556" cy="426" r="8.5" stroke="black" stroke-width="3"/>
</g>
<path d="M631.436 494.959C602.917 525.999 565.53 506.236 550 492C574.042 496.007 619.967 501.441 631.436 494.959C632.299 494.02 633.154 493.034 634 492C633.737 493.183 632.848 494.161 631.436 494.959Z" fill="#C4C4C4"/>
<path d="M550 492C566 506.667 605.2 527.2 634 492C631.6 502.8 577 496.5 550 492Z" stroke="black" stroke-width="3" stroke-linecap="round"/>
<path d="M602.86 498.799C601.67 528.547 581.73 526.646 582.875 498L592.868 498.399L602.86 498.799Z" fill="#FF2E2E"/>
<path d="M592.868 498.399L582.875 498C581.73 526.646 601.67 528.547 602.86 498.799L592.868 498.399ZM592.868 498.399L592.339 511.621" stroke="black" stroke-width="0.5"/>
<ellipse cx="592.5" cy="670" rx="170.5" ry="11" fill="#C4C4C4"/>
<defs>
<filter id="filter0_d" x="0.689453" y="0.689575" width="896.621" height="899.621" filterUnits="userSpaceOnUse" color-interpolation-filters="sRGB">
<feFlood flood-opacity="0" result="BackgroundImageFix"/>
<feColorMatrix in="SourceAlpha" type="matrix" values="0 0 0 0 0 0 0 0 0 0 0 0 0 0 0 0 0 0 127 0"/>
<feOffset dy="4"/>
<feGaussianBlur stdDeviation="2"/>
<feColorMatrix type="matrix" values="0 0 0 0 0 0 0 0 0 0 0 0 0 0 0 0 0 0 0.25 0"/>
<feBlend mode="normal" in2="BackgroundImageFix" result="effect1_dropShadow"/>
<feBlend mode="normal" in="SourceGraphic" in2="effect1_dropShadow" result="shape"/>
</filter>
<filter id="filter1_d" x="427" y="238.5" width="321.17" height="394.014" filterUnits="userSpaceOnUse" color-interpolation-filters="sRGB">
<feFlood flood-opacity="0" result="BackgroundImageFix"/>
<feColorMatrix in="SourceAlpha" type="matrix" values="0 0 0 0 0 0 0 0 0 0 0 0 0 0 0 0 0 0 127 0"/>
<feOffset dy="4"/>
<feGaussianBlur stdDeviation="2"/>
<feColorMatrix type="matrix" values="0 0 0 0 0 0 0 0 0 0 0 0 0 0 0 0 0 0 0.25 0"/>
<feBlend mode="normal" in2="BackgroundImageFix" result="effect1_dropShadow"/>
<feBlend mode="normal" in="SourceGraphic" in2="effect1_dropShadow" result="shape"/>
</filter>
<filter id="filter2_d" x="427" y="299" width="321.17" height="339.514" filterUnits="userSpaceOnUse" color-interpolation-filters="sRGB">
<feFlood flood-opacity="0" result="BackgroundImageFix"/>
<feColorMatrix in="SourceAlpha" type="matrix" values="0 0 0 0 0 0 0 0 0 0 0 0 0 0 0 0 0 0 127 0"/>
<feOffset dy="10"/>
<feGaussianBlur stdDeviation="2"/>
<feColorMatrix type="matrix" values="0 0 0 0 0 0 0 0 0 0 0 0 0 0 0 0 0 0 0.25 0"/>
<feBlend mode="normal" in2="BackgroundImageFix" result="effect1_dropShadow"/>
<feBlend mode="normal" in="SourceGraphic" in2="effect1_dropShadow" result="shape"/>
</filter>
</defs>
</svg>
