<svg width="347" height="457" viewBox="0 0 347 457" fill="none" xmlns="http://www.w3.org/2000/svg">
<path d="M18.7826 0L23.8556 13.1384L37.5652 18L23.8556 22.8616L18.7826 36L13.7096 22.8616L0 18L13.7096 13.1384L18.7826 0Z" fill="#2B1C1C"/>
<path d="M18.7826 0L23.8556 13.1384L37.5652 18L23.8556 22.8616L18.7826 36L13.7096 22.8616L0 18L13.7096 13.1384L18.7826 0Z" fill="#2B1C1C"/>
<path d="M18.7826 0L23.8556 13.1384L37.5652 18L23.8556 22.8616L18.7826 36L13.7096 22.8616L0 18L13.7096 13.1384L18.7826 0Z" fill="#2B1C1C"/>
<path d="M18.7826 0L23.8556 13.1384L37.5652 18L23.8556 22.8616L18.7826 36L13.7096 22.8616L0 18L13.7096 13.1384L18.7826 0Z" fill="#2B1C1C"/>
<path d="M24.7826 89L29.8556 102.138L43.5652 107L29.8556 111.862L24.7826 125L19.7096 111.862L6 107L19.7096 102.138L24.7826 89Z" fill="#2B1C1C"/>
<path d="M24.7826 89L29.8556 102.138L43.5652 107L29.8556 111.862L24.7826 125L19.7096 111.862L6 107L19.7096 102.138L24.7826 89Z" fill="#2B1C1C"/>
<path d="M24.7826 89L29.8556 102.138L43.5652 107L29.8556 111.862L24.7826 125L19.7096 111.862L6 107L19.7096 102.138L24.7826 89Z" fill="#2B1C1C" fill-opacity="0.3"/>
<path d="M24.7826 89L29.8556 102.138L43.5652 107L29.8556 111.862L24.7826 125L19.7096 111.862L6 107L19.7096 102.138L24.7826 89Z" fill="#2B1C1C"/>
<path d="M91 51L93.4308 57.2955L100 59.625L93.4308 61.9545L91 68.25L88.5692 61.9545L82 59.625L88.5692 57.2955L91 51Z" fill="#2B1C1C"/>
<path d="M91 51L93.4308 57.2955L100 59.625L93.4308 61.9545L91 68.25L88.5692 61.9545L82 59.625L88.5692 57.2955L91 51Z" fill="#2B1C1C"/>
<path d="M91 51L93.4308 57.2955L100 59.625L93.4308 61.9545L91 68.25L88.5692 61.9545L82 59.625L88.5692 57.2955L91 51Z" fill="#2B1C1C"/>
<path d="M91 51L93.4308 57.2955L100 59.625L93.4308 61.9545L91 68.25L88.5692 61.9545L82 59.625L88.5692 57.2955L91 51Z" fill="#2B1C1C" fill-opacity="0.2"/>
<path d="M86 10L88.4308 16.2955L95 18.625L88.4308 20.9545L86 27.25L83.5692 20.9545L77 18.625L83.5692 16.2955L86 10Z" fill="#2B1C1C"/>
<path d="M86 10L88.4308 16.2955L95 18.625L88.4308 20.9545L86 27.25L83.5692 20.9545L77 18.625L83.5692 16.2955L86 10Z" fill="#2B1C1C"/>
<path d="M86 10L88.4308 16.2955L95 18.625L88.4308 20.9545L86 27.25L83.5692 20.9545L77 18.625L83.5692 16.2955L86 10Z" fill="#2B1C1C"/>
<path d="M86 10L88.4308 16.2955L95 18.625L88.4308 20.9545L86 27.25L83.5692 20.9545L77 18.625L83.5692 16.2955L86 10Z" fill="#2B1C1C" fill-opacity="0.2"/>
<path d="M126 2L128.431 8.29547L135 10.625L128.431 12.9545L126 19.25L123.569 12.9545L117 10.625L123.569 8.29547L126 2Z" fill="#2B1C1C"/>
<path d="M126 2L128.431 8.29547L135 10.625L128.431 12.9545L126 19.25L123.569 12.9545L117 10.625L123.569 8.29547L126 2Z" fill="#2B1C1C"/>
<path d="M126 2L128.431 8.29547L135 10.625L128.431 12.9545L126 19.25L123.569 12.9545L117 10.625L123.569 8.29547L126 2Z" fill="#2B1C1C"/>
<path d="M126 2L128.431 8.29547L135 10.625L128.431 12.9545L126 19.25L123.569 12.9545L117 10.625L123.569 8.29547L126 2Z" fill="#2B1C1C" fill-opacity="0.2"/>
<path d="M38 54L40.4308 60.2955L47 62.625L40.4308 64.9545L38 71.25L35.5692 64.9545L29 62.625L35.5692 60.2955L38 54Z" fill="#2B1C1C"/>
<path d="M38 54L40.4308 60.2955L47 62.625L40.4308 64.9545L38 71.25L35.5692 64.9545L29 62.625L35.5692 60.2955L38 54Z" fill="#2B1C1C"/>
<path d="M38 54L40.4308 60.2955L47 62.625L40.4308 64.9545L38 71.25L35.5692 64.9545L29 62.625L35.5692 60.2955L38 54Z" fill="#2B1C1C"/>
<path d="M38 54L40.4308 60.2955L47 62.625L40.4308 64.9545L38 71.25L35.5692 64.9545L29 62.625L35.5692 60.2955L38 54Z" fill="#2B1C1C" fill-opacity="0.2"/>
<g filter="url(#filter0_d)">
<g filter="url(#filter1_d)">
<path d="M79.4877 121.434C79.7388 120.673 79.9536 120.027 80.1296 119.5H295.539C295.728 120.066 295.962 120.769 296.238 121.604C297.056 124.083 298.239 127.722 299.694 132.35C302.605 141.607 306.604 154.818 310.954 170.624C319.658 202.249 329.752 244.208 335.356 285.648C340.972 327.175 342.025 367.823 332.916 397.013C328.374 411.566 321.371 423.064 311.351 430.475C301.372 437.856 288.111 441.399 270.601 439.514C198.622 431.767 178.105 431.729 161.66 433.705C158.46 434.09 155.432 434.548 152.207 435.036C139.094 437.022 122.726 439.5 78.3332 439.5C65.1571 439.5 55.4575 434.718 48.3654 426.412C41.1879 418.006 36.533 405.809 33.9695 390.798C28.8409 360.766 32.245 320.488 39.1726 279.921C46.0892 239.418 56.4696 198.888 65.1284 168.466C69.4565 153.259 73.3514 140.588 76.1635 131.721C77.5695 127.287 78.7047 123.805 79.4877 121.434Z" stroke="#2B1C1C" stroke-width="5"/>
</g>
<path d="M46.3335 414C83.6668 388.667 191.934 353.2 326.333 414" stroke="#2B1C1C" stroke-width="5"/>
<path d="M78.3335 154H306.333" stroke="#2B1C1C" stroke-width="5"/>
<path d="M139.333 119C139.333 38.7541 238.333 39.2463 238.333 119" stroke="black" stroke-width="5"/>
<path d="M228 234L209 246.5C214.667 243.667 227.2 239.7 232 246.5" stroke="black" stroke-width="3"/>
<circle cx="154" cy="244" r="8.5" stroke="black" stroke-width="3"/>
</g>
<path d="M229.436 312.959C200.917 343.999 163.53 324.236 148 310C172.042 314.007 217.967 319.441 229.436 312.959C230.299 312.02 231.154 311.034 232 310C231.737 311.183 230.848 312.161 229.436 312.959Z" fill="#C4C4C4"/>
<path d="M148 310C164 324.667 203.2 345.2 232 310C229.6 320.8 175 314.5 148 310Z" stroke="black" stroke-width="3" stroke-linecap="round"/>
<path d="M200.86 316.799C199.67 346.547 179.73 344.646 180.875 316L190.868 316.399L200.86 316.799Z" fill="#FF2E2E"/>
<path d="M190.868 316.399L180.875 316C179.73 344.646 199.67 346.547 200.86 316.799L190.868 316.399ZM190.868 316.399L190.339 329.621" stroke="black" stroke-width="0.5"/>
<defs>
<filter id="filter0_d" x="25" y="56.5" width="321.17" height="394.014" filterUnits="userSpaceOnUse" color-interpolation-filters="sRGB">
<feFlood flood-opacity="0" result="BackgroundImageFix"/>
<feColorMatrix in="SourceAlpha" type="matrix" values="0 0 0 0 0 0 0 0 0 0 0 0 0 0 0 0 0 0 127 0"/>
<feOffset dy="4"/>
<feGaussianBlur stdDeviation="2"/>
<feColorMatrix type="matrix" values="0 0 0 0 0 0 0 0 0 0 0 0 0 0 0 0 0 0 0.25 0"/>
<feBlend mode="normal" in2="BackgroundImageFix" result="effect1_dropShadow"/>
<feBlend mode="normal" in="SourceGraphic" in2="effect1_dropShadow" result="shape"/>
</filter>
<filter id="filter1_d" x="25" y="117" width="321.17" height="339.514" filterUnits="userSpaceOnUse" color-interpolation-filters="sRGB">
<feFlood flood-opacity="0" result="BackgroundImageFix"/>
<feColorMatrix in="SourceAlpha" type="matrix" values="0 0 0 0 0 0 0 0 0 0 0 0 0 0 0 0 0 0 127 0"/>
<feOffset dy="10"/>
<feGaussianBlur stdDeviation="2"/>
<feColorMatrix type="matrix" values="0 0 0 0 0 0 0 0 0 0 0 0 0 0 0 0 0 0 0.25 0"/>
<feBlend mode="normal" in2="BackgroundImageFix" result="effect1_dropShadow"/>
<feBlend mode="normal" in="SourceGraphic" in2="effect1_dropShadow" result="shape"/>
</filter>
</defs>
</svg>
